<?xml version="1.0" encoding="utf-8"?>
<!-- Generator: Adobe Illustrator 25.2.1, SVG Export Plug-In . SVG Version: 6.00 Build 0)  -->
<svg version="1.1" xmlns="http://www.w3.org/2000/svg" xmlns:xlink="http://www.w3.org/1999/xlink" x="0px" y="0px"
	 viewBox="0 0 500 500" style="enable-background:new 0 0 500 500;" xml:space="preserve">
<style type="text/css">
	.st0{fill:#2C8372;}
	.st1{fill:#A3DEE8;}
	.st2{fill:#CBE9F7;}
	.st3{fill:#267264;}
	.st4{fill:#2D2D2D;}
	.st5{fill:#80BF88;}
</style>
<g id="BACKGROUND">
</g>
<g id="OBJECTS">
	<g>
		<g>
			<g>
				<path class="st0" d="M382.02,256.49c0,75.7-61.58,137.28-137.28,137.28s-137.28-61.59-137.28-137.28
					c0-11.82,9.58-21.4,21.4-21.4s21.4,9.58,21.4,21.4c0,52.1,42.39,94.49,94.49,94.49s94.49-42.39,94.49-94.49
					c0-11.82,9.58-21.4,21.4-21.4C372.44,235.1,382.02,244.67,382.02,256.49z"/>
			</g>
			<g>
				<path class="st1" d="M382.02,256.49c0,11.82-9.58,21.4-21.4,21.4c-11.82,0-21.4-9.58-21.4-21.4c0-52.1-42.39-94.49-94.49-94.49
					c-11.82,0-21.4-9.58-21.4-21.4c0-11.82,9.58-21.4,21.4-21.4C320.43,119.21,382.02,180.79,382.02,256.49z"/>
			</g>
			<g>
				<path class="st2" d="M266.13,140.6v115.89c0,11.82-9.58,21.4-21.4,21.4s-21.4-9.58-21.4-21.4V140.6c0-11.82,9.58-21.4,21.4-21.4
					S266.13,128.79,266.13,140.6z"/>
			</g>
			<g>
				<circle class="st3" cx="244.73" cy="140.47" r="21.26"/>
			</g>
			<g>
				<g>
					<circle class="st4" cx="244.73" cy="256.49" r="21.26"/>
				</g>
			</g>
			<g>
				<circle class="st5" cx="360.75" cy="256.49" r="21.26"/>
			</g>
		</g>
	</g>
</g>
</svg>
